<svg width="460" height="48" viewBox="0 0 460 48" fill="none" xmlns="http://www.w3.org/2000/svg">
<rect width="460" height="48" fill="white"/>
<path d="M439.199 42.56C436.095 42.56 433.343 41.808 430.943 40.304C428.575 38.8 426.719 36.704 425.375 34.016C424.031 31.296 423.359 28.144 423.359 24.56C423.359 20.912 424.063 17.744 425.471 15.056C426.879 12.368 428.767 10.288 431.135 8.816C433.535 7.312 436.223 6.56 439.199 6.56C442.175 6.56 444.847 7.312 447.215 8.816C449.615 10.288 451.519 12.368 452.927 15.056C454.335 17.744 455.039 20.912 455.039 24.56C455.039 28.144 454.351 31.296 452.975 34.016C451.631 36.704 449.776 38.8 447.408 40.304C445.04 41.808 442.303 42.56 439.199 42.56ZM439.199 40.784C440.927 40.784 442.479 40.288 443.855 39.296C445.231 38.272 446.319 36.576 447.119 34.208C447.919 31.84 448.319 28.624 448.319 24.56C448.319 20.464 447.919 17.232 447.119 14.864C446.319 12.496 445.231 10.8 443.855 9.776C442.479 8.752 440.927 8.24 439.199 8.24C437.471 8.24 435.919 8.752 434.543 9.776C433.167 10.8 432.079 12.496 431.279 14.864C430.479 17.232 430.079 20.464 430.079 24.56C430.079 28.624 430.479 31.84 431.279 34.208C432.079 36.576 433.167 38.272 434.543 39.296C435.919 40.288 437.471 40.784 439.199 40.784Z" fill="black"/>
<path d="M402.171 42.56C399.099 42.56 396.362 41.888 393.962 40.544C391.562 39.2 389.674 37.184 388.298 34.496C386.922 31.776 386.234 28.4 386.234 24.368C386.234 21.584 386.698 19.104 387.626 16.928C388.554 14.72 389.802 12.848 391.37 11.312C392.938 9.776 394.682 8.608 396.602 7.808C398.554 6.976 400.554 6.56 402.602 6.56C403.754 6.56 404.858 6.704 405.914 6.992C406.97 7.248 407.866 7.552 408.602 7.904C409.37 8.224 409.834 8.464 409.994 8.624C410.346 8.464 410.826 8.24 411.434 7.952C412.042 7.664 412.442 7.504 412.634 7.472C412.922 7.376 413.242 7.408 413.594 7.568C413.978 7.696 414.171 7.952 414.171 8.336V17.072C414.171 17.392 413.946 17.6 413.498 17.696C413.082 17.76 412.81 17.648 412.682 17.36C411.946 15.856 411.114 14.416 410.186 13.04C409.258 11.632 408.186 10.48 406.97 9.584C405.754 8.688 404.298 8.24 402.602 8.24C401.418 8.24 400.25 8.528 399.098 9.104C397.978 9.648 396.954 10.56 396.026 11.84C395.098 13.088 394.346 14.752 393.77 16.832C393.226 18.88 392.954 21.392 392.954 24.368C392.954 28.496 393.354 31.76 394.154 34.16C394.954 36.56 396.058 38.272 397.466 39.296C398.874 40.288 400.474 40.784 402.266 40.784C404.89 40.784 406.73 40.064 407.786 38.624C408.842 37.152 409.37 35.264 409.37 32.96V30.848C409.37 30.016 409.162 29.376 408.746 28.928C408.33 28.48 407.402 28.256 405.962 28.256C405.738 28.256 405.562 28.192 405.434 28.064C405.306 27.904 405.242 27.744 405.242 27.584C405.242 27.104 405.482 26.864 405.962 26.864C406.186 26.864 406.634 26.88 407.306 26.912C408.01 26.944 408.794 26.976 409.658 27.008C410.554 27.04 411.402 27.056 412.202 27.056C413.418 27.056 414.634 27.024 415.85 26.96C417.066 26.896 417.882 26.864 418.298 26.864C418.522 26.864 418.714 26.928 418.874 27.056C419.066 27.184 419.162 27.36 419.162 27.584C419.162 27.776 419.066 27.936 418.874 28.064C418.714 28.192 418.522 28.256 418.298 28.256C417.402 28.256 416.666 28.432 416.09 28.784C415.514 29.104 415.227 29.84 415.227 30.992C415.227 33.712 415.274 35.984 415.37 37.808C415.466 39.6 415.514 40.608 415.514 40.832C415.514 41.184 415.322 41.408 414.938 41.504C414.586 41.568 414.331 41.504 414.171 41.312C414.043 41.152 413.803 40.848 413.451 40.4C413.131 39.952 412.779 39.504 412.395 39.056C412.043 38.608 411.754 38.288 411.53 38.096C410.986 38.8 410.282 39.504 409.418 40.208C408.554 40.88 407.514 41.44 406.298 41.888C405.114 42.336 403.739 42.56 402.171 42.56Z" fill="black"/>
<path d="M374.683 42.128C373.819 42.16 373.179 42.128 372.763 42.032C372.379 41.936 372.059 41.68 371.803 41.264C371.387 40.624 370.763 39.648 369.931 38.336C369.131 36.992 368.187 35.456 367.099 33.728C366.011 31.968 364.859 30.128 363.643 28.208C362.459 26.256 361.275 24.336 360.091 22.448C358.907 20.56 357.803 18.816 356.779 17.216C355.787 15.584 354.939 14.224 354.235 13.136C353.531 12.016 353.067 11.296 352.843 10.976V34.112C352.843 36.544 353.307 38.24 354.235 39.2C355.195 40.128 356.315 40.592 357.595 40.592C357.755 40.592 357.899 40.656 358.027 40.784C358.187 40.88 358.267 41.04 358.267 41.264C358.267 41.488 358.187 41.664 358.027 41.792C357.899 41.92 357.755 41.984 357.595 41.984C357.275 41.984 356.619 41.968 355.627 41.936C354.635 41.872 353.435 41.84 352.027 41.84C350.363 41.84 349.099 41.872 348.235 41.936C347.403 41.968 346.811 41.984 346.459 41.984C346.043 41.984 345.835 41.744 345.835 41.264C345.835 40.816 346.043 40.592 346.459 40.592C347.803 40.592 348.891 40.112 349.723 39.152C350.587 38.192 351.019 36.528 351.019 34.16V11.792C351.019 10.64 350.763 9.80798 350.251 9.29598C349.739 8.75198 348.827 8.47998 347.515 8.47998C347.099 8.47998 346.891 8.23998 346.891 7.75998C346.891 7.34398 347.099 7.13599 347.515 7.13599C347.771 7.13599 348.619 7.15199 350.059 7.18398C351.531 7.21598 353.451 7.23198 355.819 7.23198C356.363 7.23198 356.763 7.31199 357.019 7.47198C357.275 7.63198 357.515 7.90398 357.739 8.28798C357.867 8.51198 358.251 9.11998 358.891 10.112C359.531 11.104 360.331 12.352 361.291 13.856C362.283 15.36 363.339 16.992 364.459 18.752C365.611 20.512 366.763 22.288 367.915 24.08C369.067 25.872 370.139 27.552 371.131 29.12C372.155 30.656 373.019 31.968 373.723 33.056C374.427 34.112 374.891 34.816 375.115 35.168V15.008C375.115 12.672 374.667 11.008 373.771 10.016C372.907 8.99199 371.707 8.47998 370.171 8.47998C369.755 8.47998 369.547 8.23998 369.547 7.75998C369.547 7.34398 369.755 7.13599 370.171 7.13599C370.523 7.13599 371.211 7.16798 372.235 7.23198C373.259 7.26398 374.475 7.27998 375.883 7.27998C377.259 7.27998 378.443 7.26398 379.435 7.23198C380.427 7.16798 381.083 7.13599 381.403 7.13599C381.883 7.13599 382.123 7.34398 382.123 7.75998C382.123 8.23998 381.883 8.47998 381.403 8.47998C380.187 8.47998 379.131 8.97598 378.235 9.96798C377.371 10.928 376.939 12.608 376.939 15.008V33.248C376.939 34.944 377.003 36.384 377.131 37.568C377.259 38.72 377.355 39.808 377.419 40.832C377.451 41.184 377.323 41.488 377.035 41.744C376.779 41.968 375.995 42.096 374.683 42.128Z" fill="black"/>
<path d="M326.967 41.984C326.551 41.984 326.343 41.728 326.343 41.216C326.343 40.8 326.551 40.592 326.967 40.592C328.631 40.592 329.831 40.416 330.567 40.064C331.303 39.712 331.671 38.96 331.671 37.808V11.216C331.671 10.16 331.319 9.43999 330.615 9.05598C329.943 8.67199 328.727 8.47998 326.967 8.47998C326.551 8.47998 326.343 8.25599 326.343 7.80799C326.343 7.35999 326.551 7.13599 326.967 7.13599C327.511 7.13599 328.215 7.15199 329.079 7.18398C329.975 7.21598 330.919 7.24798 331.911 7.27998C332.903 7.27998 333.815 7.27998 334.647 7.27998C335.447 7.27998 336.343 7.27998 337.335 7.27998C338.359 7.24798 339.319 7.21598 340.215 7.18398C341.143 7.15199 341.863 7.13599 342.375 7.13599C342.855 7.13599 343.095 7.35999 343.095 7.80799C343.095 8.25599 342.855 8.47998 342.375 8.47998C340.679 8.47998 339.463 8.67199 338.727 9.05598C338.023 9.43999 337.671 10.16 337.671 11.216V37.808C337.671 38.96 338.055 39.712 338.823 40.064C339.591 40.416 340.775 40.592 342.375 40.592C342.855 40.592 343.095 40.8 343.095 41.216C343.095 41.728 342.855 41.984 342.375 41.984C341.863 41.984 341.143 41.968 340.215 41.936C339.319 41.904 338.359 41.872 337.335 41.84C336.343 41.808 335.447 41.792 334.647 41.792C333.815 41.792 332.903 41.808 331.911 41.84C330.919 41.872 329.975 41.904 329.079 41.936C328.215 41.968 327.511 41.984 326.967 41.984Z" fill="black"/>
<path d="M291.952 41.984C291.504 41.984 291.28 41.76 291.28 41.312C291.28 40.864 291.504 40.64 291.952 40.64C293.616 40.64 294.736 40.4 295.312 39.92C295.888 39.408 296.176 38.672 296.176 37.712V11.36C296.176 10.4 295.888 9.67999 295.312 9.19999C294.768 8.71999 293.616 8.47998 291.856 8.47998C291.44 8.47998 291.232 8.25599 291.232 7.80799C291.232 7.35999 291.44 7.13599 291.856 7.13599C292.144 7.13599 292.96 7.16798 294.304 7.23198C295.68 7.26398 297.28 7.27998 299.104 7.27998C302.464 7.27998 305.2 7.26398 307.312 7.23198C309.424 7.16798 310.816 7.13599 311.488 7.13599C313.376 7.13599 315.008 7.47198 316.384 8.14398C317.792 8.81598 318.88 9.74399 319.648 10.928C320.416 12.08 320.8 13.408 320.8 14.912C320.8 16.768 320.368 18.288 319.504 19.472C318.672 20.624 317.616 21.536 316.336 22.208C315.056 22.88 313.792 23.408 312.544 23.792C313.344 23.792 314.288 23.936 315.376 24.224C316.464 24.512 317.536 24.976 318.592 25.616C319.648 26.256 320.512 27.136 321.184 28.256C321.888 29.344 322.24 30.72 322.24 32.384C322.24 34.496 321.712 36.272 320.656 37.712C319.6 39.12 318.128 40.192 316.24 40.928C314.384 41.632 312.208 41.984 309.712 41.984C309.36 41.984 308.976 41.984 308.56 41.984C308.144 41.952 307.568 41.936 306.832 41.936C306.128 41.936 305.152 41.936 303.904 41.936C302.656 41.904 301.024 41.888 299.008 41.888C297.152 41.888 295.584 41.904 294.304 41.936C293.056 41.968 292.272 41.984 291.952 41.984ZM303.088 40.544H308.128C310.688 40.544 312.56 39.776 313.744 38.24C314.96 36.704 315.568 34.752 315.568 32.384C315.568 30.176 314.928 28.336 313.648 26.864C312.4 25.36 310.416 24.608 307.696 24.608H302.032V39.536C302.032 39.824 302.096 40.064 302.224 40.256C302.384 40.448 302.672 40.544 303.088 40.544ZM302.032 22.928H307.792C312.176 22.928 314.368 20.32 314.368 15.104C314.368 13.216 313.92 11.664 313.024 10.448C312.128 9.23199 310.56 8.62398 308.32 8.62398H302.032V22.928Z" fill="black"/>
<path d="M263.584 41.936C263.36 41.776 263.232 41.568 263.2 41.312C263.2 41.056 263.28 40.848 263.44 40.688C265.424 40.336 267.408 39.76 269.392 38.96C271.408 38.16 273.248 37.104 274.912 35.792C276.576 34.48 277.904 32.896 278.896 31.04C279.92 29.152 280.432 26.992 280.432 24.56C280.432 21.424 279.84 18.736 278.656 16.496C277.472 14.256 275.824 12.528 273.712 11.312C271.632 10.096 269.2 9.47199 266.416 9.43999V12.416C266.416 14.976 266.144 17.472 265.6 19.904C265.088 22.336 264.4 24.608 263.536 26.72C262.704 28.832 261.76 30.688 260.704 32.288C259.68 33.888 258.656 35.136 257.632 36.032C256.608 36.928 255.664 37.376 254.8 37.376C254.032 37.376 253.264 37.216 252.496 36.896C251.728 36.576 251.024 36.064 250.384 35.36C249.52 34.432 248.816 33.2 248.272 31.664C247.728 30.096 247.456 28.176 247.456 25.904C247.456 23.792 247.904 21.664 248.8 19.52C249.696 17.376 250.976 15.408 252.64 13.616C254.304 11.792 256.272 10.336 258.544 9.24799C260.848 8.12799 263.408 7.56799 266.224 7.56799C268.784 7.56799 271.152 7.98399 273.328 8.81599C275.504 9.64799 277.392 10.832 278.992 12.368C280.624 13.872 281.888 15.68 282.784 17.792C283.68 19.904 284.128 22.24 284.128 24.8C284.128 27.616 283.52 30.064 282.304 32.144C281.12 34.192 279.536 35.92 277.552 37.328C275.568 38.736 273.36 39.824 270.928 40.592C268.496 41.328 266.048 41.776 263.584 41.936ZM254.656 33.104C255.392 33.104 256.208 32.704 257.104 31.904C258 31.072 258.88 29.952 259.744 28.544C260.608 27.104 261.392 25.488 262.096 23.696C262.832 21.872 263.408 19.984 263.824 18.032C264.272 16.048 264.496 14.096 264.496 12.176V9.53599C261.84 9.82399 259.472 10.736 257.392 12.272C255.312 13.776 253.68 15.696 252.496 18.032C251.344 20.368 250.768 22.96 250.768 25.808C250.768 27.952 251.12 29.712 251.824 31.088C252.56 32.432 253.504 33.104 254.656 33.104Z" fill="black"/>
<path d="M218.992 40.64C218.64 39.488 218.176 38.736 217.6 38.384C217.056 38 216.16 37.712 214.912 37.52C214.592 37.136 214.624 36.8 215.008 36.512C215.456 36.544 216.096 36.592 216.928 36.656C217.792 36.72 218.592 36.736 219.328 36.704C219.904 36.672 220.336 36.576 220.624 36.416C220.944 36.224 221.248 35.936 221.536 35.552C222.304 34.464 222.912 32.272 223.36 28.976C223.808 25.648 224.032 20.992 224.032 15.008H218.992C218.96 15.168 218.928 15.328 218.896 15.488C218.864 15.616 218.832 15.728 218.8 15.824C218.768 16.112 218.496 16.336 217.984 16.496C217.504 16.656 216.992 16.672 216.448 16.544C215.712 16.32 215.456 15.968 215.68 15.488C215.936 14.848 216.224 14 216.544 12.944C216.864 11.856 217.184 10.736 217.504 9.58399C217.824 8.39999 218.08 7.37599 218.272 6.51199H211.84C211.84 6.51199 211.568 6.52799 211.024 6.55999C210.512 6.55999 209.936 6.62399 209.296 6.75199L208.912 4.63999C209.712 4.86399 210.4 4.99199 210.976 5.02399C211.552 5.05599 211.84 5.07199 211.84 5.07199H231.856C232.048 5.07199 232.224 4.99199 232.384 4.83199C232.576 4.63999 232.864 4.33599 233.248 3.91999C233.664 3.50399 233.952 3.21599 234.112 3.05599C234.368 2.79999 234.672 2.79999 235.024 3.05599C235.344 3.27999 235.792 3.61599 236.368 4.06399C236.944 4.51199 237.392 4.91199 237.712 5.26399C237.968 5.48799 238.064 5.75999 238 6.07999C237.968 6.36799 237.808 6.51199 237.52 6.51199H221.152C220.896 7.50399 220.592 8.67199 220.24 10.016C219.888 11.328 219.584 12.496 219.328 13.52H223.168C223.392 13.52 223.568 13.456 223.696 13.328C223.888 13.104 224.096 12.864 224.32 12.608C224.544 12.352 224.752 12.128 224.944 11.936C225.2 11.648 225.504 11.632 225.856 11.888C226.208 12.112 226.64 12.448 227.152 12.896C227.664 13.344 228.08 13.712 228.4 14C228.784 14.384 228.736 14.72 228.256 15.008L227.008 15.68C226.88 15.776 226.784 15.872 226.72 15.968C226.688 16.032 226.672 16.224 226.672 16.544L226.624 17.072H232.336C232.56 17.072 232.736 16.992 232.864 16.832C233.056 16.608 233.248 16.384 233.44 16.16C233.664 15.936 233.872 15.728 234.064 15.536C234.288 15.248 234.592 15.248 234.976 15.536C235.328 15.792 235.824 16.192 236.464 16.736C237.136 17.248 237.632 17.648 237.952 17.936C238.144 18.096 238.224 18.272 238.192 18.464C238.16 18.656 238.016 18.8 237.76 18.896C237.6 18.992 237.408 19.088 237.184 19.184C236.992 19.248 236.816 19.312 236.656 19.376C236.464 19.472 236.32 19.568 236.224 19.664C236.16 19.728 236.112 19.872 236.08 20.096C235.856 21.44 235.584 22.736 235.264 23.984C234.944 25.2 234.576 26.368 234.16 27.488C235.088 28.512 235.888 29.568 236.56 30.656C237.264 31.712 237.728 32.72 237.952 33.68C238.176 34.672 238.176 35.52 237.952 36.224C237.76 36.896 237.44 37.328 236.992 37.52C236.672 37.648 236.352 37.648 236.032 37.52C235.744 37.392 235.488 36.992 235.264 36.32C234.976 35.392 234.64 34.432 234.256 33.44C233.872 32.416 233.424 31.408 232.912 30.416C231.952 32.368 230.832 34.128 229.552 35.696C228.304 37.264 226.896 38.672 225.328 39.92C225.136 39.92 224.976 39.856 224.848 39.728C224.72 39.568 224.672 39.392 224.704 39.2C226.176 37.664 227.472 35.952 228.592 34.064C229.744 32.144 230.688 30.032 231.424 27.728C230.912 26.896 230.352 26.08 229.744 25.28C229.136 24.48 228.464 23.728 227.728 23.024C227.728 22.544 227.952 22.304 228.4 22.304C229.552 23.168 230.768 24.192 232.048 25.376C232.304 24.32 232.512 23.216 232.672 22.064C232.864 20.912 233.008 19.728 233.104 18.512H226.624C226.592 23.824 226.288 28.048 225.712 31.184C225.136 34.32 224.288 36.608 223.168 38.048C222.08 39.488 220.688 40.352 218.992 40.64ZM203.536 45.44C202.832 45.44 202.48 45.168 202.48 44.624C202.48 44.464 202.496 43.904 202.528 42.944C202.56 41.984 202.608 40.768 202.672 39.296C202.736 37.824 202.784 36.24 202.816 34.544C202.848 32.816 202.864 31.136 202.864 29.504V23.408C201.968 25.712 200.896 27.824 199.648 29.744C198.432 31.664 197.168 33.296 195.856 34.64C195.376 34.736 195.104 34.56 195.04 34.112C196.096 32.544 197.136 30.656 198.16 28.448C199.216 26.208 200.144 23.792 200.944 21.2C201.776 18.576 202.368 15.936 202.72 13.28H198.688C198.688 13.28 198.416 13.296 197.872 13.328C197.36 13.328 196.784 13.392 196.144 13.52L195.76 11.456C196.56 11.648 197.248 11.76 197.824 11.792C198.4 11.824 198.688 11.84 198.688 11.84H202.864V4.92799C202.864 3.74399 202.752 2.99199 202.528 2.67199C202.4 2.47999 202.4 2.30399 202.528 2.14399C202.592 2.01599 202.752 1.98399 203.008 2.04799C203.52 2.14399 204.224 2.28799 205.12 2.47999C206.016 2.67199 206.72 2.84799 207.232 3.00799C207.552 3.10399 207.68 3.29599 207.616 3.58399C207.616 3.90399 207.44 4.06399 207.088 4.06399C206.768 4.09599 206.432 4.17599 206.08 4.30399C205.76 4.39999 205.6 4.68799 205.6 5.16799V11.84H207.808C208.032 11.84 208.208 11.76 208.336 11.6C208.496 11.44 208.736 11.168 209.056 10.784C209.376 10.368 209.6 10.096 209.728 9.96799C209.952 9.67999 210.256 9.67999 210.64 9.96799C210.8 10.064 211.056 10.256 211.408 10.544C211.792 10.832 212.16 11.12 212.512 11.408C212.896 11.696 213.152 11.904 213.28 12.032C213.536 12.256 213.632 12.528 213.568 12.848C213.504 13.136 213.328 13.28 213.04 13.28H205.6V18.704C206.432 19.024 207.36 19.536 208.384 20.24C209.408 20.944 210.192 21.712 210.736 22.544C211.248 23.344 211.408 24.064 211.216 24.704C211.024 25.344 210.704 25.792 210.256 26.048C209.936 26.176 209.648 26.208 209.392 26.144C209.168 26.048 208.976 25.792 208.816 25.376C208.464 24.416 208 23.472 207.424 22.544C206.88 21.616 206.272 20.8 205.6 20.096V29.552C205.6 31.312 205.6 33.024 205.6 34.688C205.632 36.352 205.664 37.872 205.696 39.248C205.728 40.624 205.744 41.76 205.744 42.656C205.776 43.552 205.792 44.096 205.792 44.288C205.792 44.544 205.552 44.8 205.072 45.056C204.592 45.312 204.08 45.44 203.536 45.44ZM212.848 34.496C212.272 34.496 211.984 34.208 211.984 33.632C211.984 33.472 212 33.008 212.032 32.24C212.064 31.44 212.08 30.496 212.08 29.408C212.112 28.288 212.144 27.136 212.176 25.952C212.208 24.768 212.224 23.728 212.224 22.832C212.224 21.712 212.192 20.832 212.128 20.192C212.064 19.52 211.968 19.024 211.84 18.704C211.712 18.544 211.728 18.384 211.888 18.224C212.016 18.096 212.208 18.08 212.464 18.176C212.72 18.336 213.136 18.576 213.712 18.896C214.32 19.216 214.832 19.504 215.248 19.76H217.456C217.712 19.76 217.904 19.696 218.032 19.568C218.192 19.376 218.368 19.168 218.56 18.944C218.784 18.72 218.976 18.512 219.136 18.32C219.296 18.128 219.44 18.032 219.568 18.032C219.696 18.032 219.856 18.112 220.048 18.272C220.4 18.528 220.784 18.848 221.2 19.232C221.616 19.616 221.984 19.968 222.304 20.288C222.688 20.672 222.656 21.008 222.208 21.296L221.344 21.776C221.216 21.84 221.12 21.92 221.056 22.016C220.992 22.112 220.96 22.32 220.96 22.64C220.96 23.248 220.96 24.064 220.96 25.088C220.992 26.112 221.024 27.168 221.056 28.256C221.088 29.312 221.104 30.24 221.104 31.04C221.136 31.808 221.152 32.24 221.152 32.336C221.152 32.656 220.944 32.944 220.528 33.2C220.112 33.424 219.664 33.536 219.184 33.536C218.576 33.536 218.272 33.296 218.272 32.816V32H214.768V33.488C214.768 33.744 214.56 33.984 214.144 34.208C213.728 34.4 213.296 34.496 212.848 34.496ZM208.72 43.472L208.336 41.408C209.136 41.6 209.824 41.712 210.4 41.744C210.976 41.776 211.264 41.792 211.264 41.792H232.576C232.896 41.792 233.136 41.696 233.296 41.504C233.456 41.248 233.744 40.864 234.16 40.352C234.576 39.84 234.864 39.488 235.024 39.296C235.248 38.976 235.552 38.944 235.936 39.2C236.192 39.36 236.528 39.632 236.944 40.016C237.36 40.4 237.776 40.784 238.192 41.168C238.64 41.52 238.96 41.792 239.152 41.984C239.408 42.208 239.504 42.464 239.44 42.752C239.376 43.072 239.2 43.232 238.912 43.232H211.264C211.264 43.232 210.992 43.232 210.448 43.232C209.936 43.264 209.36 43.344 208.72 43.472ZM214.768 30.56H218.272V21.2H214.768V30.56Z" fill="black"/>
<path d="M148.384 45.632C148.352 45.632 148.32 45.632 148.288 45.632C148.288 45.664 148.272 45.68 148.24 45.68C148.016 45.68 147.872 45.552 147.808 45.296V45.2C147.808 44.944 147.92 44.768 148.144 44.672C151.536 43.68 154.176 42.384 156.064 40.784C157.984 39.184 159.376 37.376 160.24 35.36C161.136 33.344 161.744 31.216 162.064 28.976V28.88C162.064 28.688 161.984 28.512 161.824 28.352C161.696 28.192 161.52 28.112 161.296 28.112L155.776 28.352C154.944 28.384 154.16 28.432 153.424 28.496C152.688 28.528 152.096 28.576 151.648 28.64H151.456C150.912 28.64 150.592 28.4 150.496 27.92L150.4 27.584L150.352 27.392C150.352 27.008 150.576 26.816 151.024 26.816C151.536 26.848 152.224 26.896 153.088 26.96C153.984 26.992 154.864 26.992 155.728 26.96L161.44 26.72C162.016 26.656 162.336 26.352 162.4 25.808L162.544 23.6C162.576 22.288 162.576 21.36 162.544 20.816C162.512 20.624 162.4 20.496 162.208 20.432C162.048 20.336 161.888 20.352 161.728 20.48C160.032 21.856 158.096 22.912 155.92 23.648C153.744 24.352 151.472 24.912 149.104 25.328H149.008C148.752 25.328 148.592 25.2 148.528 24.944C148.496 24.912 148.48 24.864 148.48 24.8C148.48 24.576 148.608 24.432 148.864 24.368C150.976 23.76 152.896 22.912 154.624 21.824C156.352 20.736 157.824 19.28 159.04 17.456C160.288 15.632 161.184 13.312 161.728 10.496V10.352C161.728 9.872 161.504 9.632 161.056 9.632H156.976C156.752 9.632 156.56 9.712 156.4 9.872C156.24 10.032 156.16 10.24 156.16 10.496C156.224 12.736 155.792 14.48 154.864 15.728C153.968 16.944 152.736 17.552 151.168 17.552C150.176 17.552 149.408 17.264 148.864 16.688C148.352 16.112 148.096 15.472 148.096 14.768C148.096 14.224 148.24 13.696 148.528 13.184C148.816 12.672 149.248 12.256 149.824 11.936C151.136 11.2 152.144 10.352 152.848 9.392C153.552 8.432 154.032 7.216 154.288 5.744C154.352 5.424 154.528 5.264 154.816 5.264C155.104 5.264 155.296 5.392 155.392 5.648C155.456 5.936 155.52 6.224 155.584 6.512C155.68 6.8 155.744 7.072 155.776 7.328C155.872 7.872 156.224 8.144 156.832 8.144H165.52C165.776 8.144 165.984 8.064 166.144 7.904C166.336 7.712 166.432 7.504 166.432 7.28V5.456C166.432 4.112 166.304 3.264 166.048 2.912C165.952 2.656 165.936 2.448 166 2.288C166.128 2.096 166.304 2 166.528 2C167.008 2 167.712 2.048 168.64 2.144C169.6 2.24 170.56 2.352 171.52 2.48C172.48 2.608 173.168 2.72 173.584 2.816C173.968 2.944 174.16 3.2 174.16 3.584C174.16 4.096 173.904 4.384 173.392 4.448C172.752 4.544 172.432 4.896 172.432 5.504V7.28C172.432 7.504 172.512 7.712 172.672 7.904C172.864 8.064 173.072 8.144 173.296 8.144H181.984C182.24 8.144 182.416 8.128 182.512 8.096C182.608 8.064 182.72 7.936 182.848 7.712C182.976 7.488 183.104 7.264 183.232 7.04C183.36 6.816 183.472 6.608 183.568 6.416C183.76 6.064 184.016 5.888 184.336 5.888C184.528 5.888 184.688 5.92 184.816 5.984C185.392 6.208 186.064 6.56 186.832 7.04C187.632 7.488 188.416 7.952 189.184 8.432C189.952 8.912 190.544 9.328 190.96 9.68C191.216 9.84 191.344 10.112 191.344 10.496C191.344 10.688 191.312 10.832 191.248 10.928C191.088 11.376 190.704 11.584 190.096 11.552H188.848C187.632 11.584 186.496 11.824 185.44 12.272C184.384 12.688 183.168 13.392 181.792 14.384C181.536 14.544 181.312 14.544 181.12 14.384C180.896 14.224 180.816 14 180.88 13.712C181.008 13.36 181.184 12.864 181.408 12.224C181.664 11.552 181.872 10.96 182.032 10.448C182.064 10.384 182.08 10.304 182.08 10.208C182.08 9.824 181.872 9.632 181.456 9.632H177.856C177.632 9.632 177.424 9.712 177.232 9.872C177.072 10.032 176.992 10.24 176.992 10.496V16.112C176.992 16.528 177.088 16.816 177.28 16.976C177.472 17.104 177.84 17.184 178.384 17.216C178.576 17.216 178.768 17.232 178.96 17.264C179.184 17.264 179.408 17.264 179.632 17.264C180.496 17.264 181.36 17.232 182.224 17.168C183.12 17.104 183.808 17.008 184.288 16.88C184.832 16.752 185.2 16.624 185.392 16.496C185.584 16.336 185.776 16.032 185.968 15.584C186.16 15.04 186.352 14.448 186.544 13.808C186.736 13.136 186.896 12.592 187.024 12.176C187.088 11.92 187.264 11.792 187.552 11.792C187.872 11.792 188.032 11.968 188.032 12.32V15.296C188.032 15.648 188.096 15.92 188.224 16.112C188.384 16.272 188.608 16.4 188.896 16.496C189.344 16.656 189.728 16.944 190.048 17.36C190.368 17.776 190.528 18.288 190.528 18.896C190.528 20.176 189.584 21.024 187.696 21.44C186.64 21.664 185.28 21.84 183.616 21.968C181.984 22.064 180.368 22.112 178.768 22.112C177.04 22.112 175.648 22.064 174.592 21.968C173.472 21.872 172.704 21.648 172.288 21.296C171.872 20.912 171.664 20.336 171.664 19.568V10.496C171.664 10.24 171.584 10.032 171.424 9.872C171.264 9.712 171.056 9.632 170.8 9.632H168.544C167.936 9.632 167.584 9.904 167.488 10.448C167.104 12.176 166.592 13.696 165.952 15.008C165.312 16.32 164.576 17.488 163.744 18.512C163.648 18.608 163.6 18.704 163.6 18.8C163.6 19.056 163.728 19.216 163.984 19.28C164.624 19.344 165.328 19.44 166.096 19.568C166.864 19.696 167.584 19.824 168.256 19.952C168.96 20.08 169.472 20.192 169.792 20.288C170.112 20.352 170.272 20.592 170.272 21.008C170.24 21.232 170.16 21.376 170.032 21.44C169.936 21.504 169.808 21.552 169.648 21.584C169.2 21.68 168.912 21.824 168.784 22.016C168.656 22.176 168.56 22.512 168.496 23.024C168.464 23.44 168.432 23.872 168.4 24.32C168.368 24.736 168.32 25.152 168.256 25.568V25.664C168.256 25.888 168.32 26.08 168.448 26.24C168.608 26.368 168.8 26.416 169.024 26.384L171.856 26.288C172.208 26.288 172.432 26.16 172.528 25.904C172.624 25.744 172.72 25.536 172.816 25.28C172.944 25.024 173.04 24.816 173.104 24.656C173.264 24.304 173.568 24.176 174.016 24.272C174.752 24.4 175.68 24.688 176.8 25.136C177.92 25.584 178.864 26.016 179.632 26.432C179.92 26.56 180.064 26.832 180.064 27.248C180.064 27.664 179.904 27.952 179.584 28.112C179.36 28.208 179.168 28.304 179.008 28.4C178.624 28.592 178.368 28.832 178.24 29.12C178.112 29.376 178.048 29.76 178.048 30.272V38.096C178.048 38.544 178.176 38.864 178.432 39.056C178.688 39.216 179.04 39.296 179.488 39.296C180.544 39.296 181.52 39.264 182.416 39.2C183.344 39.136 184.064 39.056 184.576 38.96C185.12 38.832 185.504 38.688 185.728 38.528C185.984 38.336 186.224 37.984 186.448 37.472C186.64 36.992 186.848 36.352 187.072 35.552C187.296 34.752 187.52 33.952 187.744 33.152C187.968 32.32 188.128 31.696 188.224 31.28C188.288 31.024 188.464 30.896 188.752 30.896C188.912 30.896 189.04 30.96 189.136 31.088C189.232 31.184 189.264 31.296 189.232 31.424L188.992 37.28C188.992 37.856 189.28 38.24 189.856 38.432C190.4 38.592 190.832 38.912 191.152 39.392C191.504 39.872 191.68 40.4 191.68 40.976C191.68 41.648 191.456 42.224 191.008 42.704C190.56 43.216 189.84 43.6 188.848 43.856C188.08 44.016 187.136 44.16 186.016 44.288C184.896 44.416 183.728 44.496 182.512 44.528C181.328 44.592 180.176 44.624 179.056 44.624C178.448 44.624 177.856 44.608 177.28 44.576C176.736 44.576 176.24 44.56 175.792 44.528C174.64 44.4 173.808 44.144 173.296 43.76C172.816 43.376 172.576 42.736 172.576 41.84V28.592C172.576 28.336 172.496 28.128 172.336 27.968C172.176 27.808 171.968 27.728 171.712 27.728L168.784 27.872C168.208 27.872 167.856 28.16 167.728 28.736C167.12 31.616 166.24 34.032 165.088 35.984C163.968 37.936 162.592 39.536 160.96 40.784C159.328 42 157.456 42.976 155.344 43.712C153.264 44.48 150.944 45.12 148.384 45.632Z" fill="#D20B1D"/>
<path d="M132.016 41.552C128.784 41.84 125.936 41.616 123.472 40.88C121.008 40.112 119.088 38.752 117.712 36.8C116.336 34.848 115.648 32.208 115.648 28.88C115.648 25.04 116.4 21.76 117.904 19.04C119.44 16.32 121.328 14.112 123.568 12.416C121.584 12.768 119.584 13.232 117.568 13.808C115.584 14.384 113.44 15.136 111.136 16.064C110.528 16.288 109.872 16.592 109.168 16.976C108.464 17.328 107.792 17.504 107.152 17.504C106.192 17.504 105.392 17.2 104.752 16.592C104.144 15.984 103.68 15.264 103.36 14.432C103.072 13.568 102.88 12.784 102.784 12.08C103.008 11.632 103.328 11.52 103.744 11.744C104 12.352 104.384 12.8 104.896 13.088C105.44 13.376 106.192 13.52 107.152 13.52C107.984 13.52 109.136 13.392 110.608 13.136C112.08 12.848 113.76 12.496 115.648 12.08C117.568 11.632 119.6 11.168 121.744 10.688C123.92 10.208 126.112 9.76001 128.32 9.34401C130.528 8.89601 132.656 8.52801 134.704 8.24001C135.344 8.14401 135.824 8.09601 136.144 8.09601C136.496 8.09601 136.832 8.22401 137.152 8.48001C137.952 9.05601 138.464 9.64801 138.688 10.256C138.944 10.864 138.928 11.344 138.64 11.696C138.352 12.048 137.808 12.176 137.008 12.08C135.824 11.92 134.512 11.792 133.072 11.696C131.664 11.568 130.256 11.6 128.848 11.792C127.44 11.984 126.16 12.48 125.008 13.28C122.48 14.944 120.752 17.088 119.824 19.712C118.928 22.336 118.512 25.376 118.576 28.832C118.64 32.192 119.744 34.624 121.888 36.128C124.064 37.632 127.104 38.176 131.008 37.76C131.36 37.696 131.632 37.68 131.824 37.712C132.016 37.744 132.24 37.872 132.496 38.096C133.712 39.088 134.192 39.888 133.936 40.496C133.68 41.104 133.04 41.456 132.016 41.552ZM134.56 25.616C134.272 25.616 133.984 25.536 133.696 25.376C133.44 25.184 133.248 24.816 133.12 24.272C132.832 23.056 132.432 21.888 131.92 20.768C131.408 19.616 130.64 18.592 129.616 17.696C129.552 17.184 129.76 16.928 130.24 16.928C131.2 17.28 132.096 17.792 132.928 18.464C133.792 19.104 134.496 19.824 135.04 20.624C135.616 21.424 135.952 22.256 136.048 23.12C136.112 23.856 135.968 24.464 135.616 24.944C135.264 25.392 134.912 25.616 134.56 25.616ZM140.416 22.688C140.128 22.72 139.84 22.672 139.552 22.544C139.264 22.416 138.992 22.096 138.736 21.584C138.224 20.464 137.616 19.424 136.912 18.464C136.208 17.504 135.232 16.624 133.984 15.824C133.856 15.344 134.016 15.056 134.464 14.96C135.392 15.184 136.352 15.536 137.344 16.016C138.336 16.496 139.216 17.072 139.984 17.744C140.752 18.416 141.232 19.152 141.424 19.952C141.616 20.656 141.584 21.28 141.328 21.824C141.072 22.336 140.768 22.624 140.416 22.688Z" fill="black"/>
<path d="M52.576 44.384L52.144 42.272C52.944 42.464 53.632 42.576 54.208 42.608C54.816 42.64 55.12 42.656 55.12 42.656H72.112V37.28H60.064C60.064 37.28 59.792 37.296 59.248 37.328C58.736 37.328 58.16 37.392 57.52 37.52L57.136 35.408C57.936 35.632 58.624 35.76 59.2 35.792C59.776 35.824 60.064 35.84 60.064 35.84H72.112V31.472H57.136C57.136 31.472 56.864 31.488 56.32 31.52C55.808 31.52 55.232 31.584 54.592 31.712L54.208 29.6C55.008 29.792 55.696 29.904 56.272 29.936C56.848 29.968 57.136 29.984 57.136 29.984H87.856C88.08 29.984 88.256 29.92 88.384 29.792C88.48 29.664 88.64 29.488 88.864 29.264C89.12 29.008 89.376 28.752 89.632 28.496C89.888 28.24 90.048 28.08 90.112 28.016C90.368 27.76 90.672 27.76 91.024 28.016C91.184 28.112 91.456 28.32 91.84 28.64C92.224 28.928 92.5921 29.232 92.944 29.552C93.3281 29.84 93.584 30.048 93.712 30.176C93.968 30.4 94.064 30.672 94 30.992C93.936 31.312 93.76 31.472 93.472 31.472H75.184V35.84H84.448C84.64 35.84 84.816 35.76 84.976 35.6C85.104 35.472 85.28 35.296 85.504 35.072C85.76 34.816 86 34.56 86.224 34.304C86.48 34.048 86.64 33.888 86.704 33.824C86.992 33.536 87.296 33.536 87.616 33.824C87.776 33.92 88.048 34.128 88.432 34.448C88.816 34.768 89.2 35.088 89.584 35.408C89.9681 35.696 90.224 35.904 90.352 36.032C90.608 36.256 90.704 36.528 90.64 36.848C90.576 37.136 90.4 37.28 90.112 37.28H80.944C81.712 37.536 82.432 37.888 83.104 38.336C83.776 38.784 84.224 39.328 84.448 39.968C84.672 40.512 84.672 41.04 84.448 41.552C84.224 42.064 83.8561 42.384 83.3441 42.512C82.7041 42.672 82.224 42.416 81.904 41.744C81.584 40.944 81.184 40.16 80.704 39.392C80.224 38.624 79.584 37.92 78.784 37.28H75.184V42.656H88.768C88.928 42.656 89.056 42.64 89.1521 42.608C89.2481 42.576 89.344 42.496 89.44 42.368C89.536 42.24 89.712 42.032 89.968 41.744C90.224 41.424 90.464 41.104 90.688 40.784C90.944 40.464 91.12 40.256 91.216 40.16C91.408 39.872 91.696 39.856 92.08 40.112C92.24 40.208 92.544 40.464 92.992 40.88C93.472 41.264 93.936 41.648 94.384 42.032C94.864 42.448 95.168 42.72 95.296 42.848C95.552 43.072 95.648 43.344 95.584 43.664C95.5201 43.984 95.344 44.144 95.056 44.144H55.12C55.12 44.144 54.848 44.144 54.304 44.144C53.792 44.176 53.216 44.256 52.576 44.384ZM82.1921 28.64C81.6161 28.64 81.328 28.368 81.328 27.824C81.328 27.568 81.344 26.912 81.376 25.856C81.44 24.768 81.472 23.664 81.472 22.544H76.336C76.336 22.544 76.064 22.56 75.52 22.592C75.008 22.592 74.432 22.656 73.792 22.784L73.408 20.72C74.208 20.912 74.896 21.024 75.472 21.056C76.048 21.088 76.336 21.104 76.336 21.104H81.52V17.072H74.944C74.944 17.072 74.672 17.088 74.128 17.12C73.584 17.12 72.992 17.184 72.352 17.312L71.968 15.248C72.768 15.44 73.456 15.552 74.032 15.584C74.608 15.616 74.896 15.632 74.896 15.632H78.976C78.944 15.568 78.912 15.504 78.88 15.44C78.88 15.376 78.88 15.312 78.88 15.248C78.656 14.352 78.32 13.392 77.872 12.368C77.456 11.344 76.832 10.416 76 9.58401C75.968 9.39201 76.016 9.23201 76.144 9.10401C76.272 8.94401 76.432 8.86401 76.624 8.86401C77.968 9.40801 79.024 10.096 79.792 10.928C80.56 11.728 81.04 12.544 81.232 13.376C81.36 13.888 81.376 14.336 81.28 14.72C81.184 15.072 81.024 15.376 80.8 15.632H83.872C84.224 14.896 84.608 13.968 85.024 12.848C85.44 11.728 85.744 10.736 85.936 9.87201C86 9.64801 86.032 9.45601 86.032 9.29601C86.032 9.13601 86.032 8.99201 86.032 8.86401C86.032 8.80001 86.032 8.75201 86.032 8.72001H75.952C75.952 8.72001 75.68 8.73601 75.136 8.76801C74.624 8.76801 74.048 8.83201 73.408 8.96001L73.024 6.84801C73.824 7.04001 74.512 7.15201 75.088 7.18401C75.664 7.21601 75.952 7.23201 75.952 7.23201H81.52V4.92801C81.52 3.80801 81.408 3.05601 81.184 2.67201C81.024 2.51201 81.024 2.33601 81.184 2.14401C81.28 2.04801 81.424 2.01601 81.616 2.04801C81.968 2.11201 82.416 2.20801 82.96 2.33601C83.536 2.46401 84.112 2.59201 84.688 2.72001C85.264 2.81601 85.728 2.91201 86.08 3.00801C86.336 3.10401 86.464 3.31201 86.464 3.63201C86.432 3.95201 86.256 4.11201 85.936 4.11201C85.584 4.14401 85.232 4.22401 84.88 4.35201C84.56 4.44801 84.4001 4.73601 84.4001 5.21601V7.23201H89.44C89.664 7.23201 89.84 7.16801 89.968 7.04001C90.128 6.84801 90.368 6.57601 90.688 6.22401C91.04 5.84001 91.28 5.58401 91.408 5.45601C91.696 5.13601 92 5.12001 92.32 5.40801C92.64 5.63201 93.024 5.96801 93.472 6.41601C93.92 6.83201 94.3041 7.18401 94.6241 7.47201C94.88 7.72801 94.96 8.00001 94.864 8.28801C94.8 8.57601 94.624 8.72001 94.336 8.72001H87.904C88.32 8.91201 88.736 9.10401 89.1521 9.29601C89.5681 9.48801 89.8881 9.66401 90.112 9.82401C90.368 10.016 90.448 10.24 90.352 10.496C90.288 10.784 90.08 10.896 89.728 10.832C89.504 10.8 89.296 10.816 89.104 10.88C88.944 10.944 88.784 11.12 88.6241 11.408C88.144 12.112 87.6 12.848 86.992 13.616C86.384 14.352 85.8081 15.024 85.264 15.632H90.016C90.24 15.632 90.4 15.552 90.496 15.392C90.688 15.2 90.944 14.928 91.264 14.576C91.616 14.224 91.8561 13.968 91.9841 13.808C92.2721 13.488 92.576 13.472 92.896 13.76C93.216 13.984 93.6 14.32 94.048 14.768C94.496 15.184 94.864 15.536 95.1521 15.824C95.4401 16.08 95.536 16.352 95.44 16.64C95.376 16.928 95.2 17.072 94.912 17.072H84.4001V21.104H88.864C89.088 21.104 89.264 21.04 89.392 20.912C89.552 20.72 89.792 20.448 90.112 20.096C90.4641 19.712 90.72 19.44 90.88 19.28C91.04 19.12 91.184 19.04 91.312 19.04C91.44 19.04 91.6 19.104 91.792 19.232C92.112 19.456 92.496 19.792 92.944 20.24C93.392 20.656 93.76 21.024 94.048 21.344C94.304 21.6 94.384 21.872 94.288 22.16C94.224 22.416 94.064 22.544 93.808 22.544H84.4001C84.4321 23.664 84.464 24.704 84.496 25.664C84.56 26.592 84.592 27.184 84.592 27.44C84.592 27.696 84.352 27.968 83.872 28.256C83.392 28.512 82.8321 28.64 82.1921 28.64ZM52.336 28.64C51.824 28.768 51.536 28.592 51.472 28.112C52.272 26.768 53.008 25.248 53.68 23.552C54.384 21.856 54.944 19.792 55.36 17.36C55.808 14.928 56.032 11.968 56.032 8.48001C56.032 7.10401 55.984 6.06401 55.888 5.36001C55.792 4.62401 55.664 4.08001 55.504 3.72801C55.408 3.53601 55.44 3.36001 55.6 3.20001C55.76 3.07201 55.936 3.05601 56.128 3.15201C56.416 3.28001 56.896 3.53601 57.568 3.92001C58.24 4.27201 58.8 4.57601 59.248 4.83201H67.504C67.696 4.83201 67.872 4.75201 68.032 4.59201C68.192 4.43201 68.384 4.22401 68.608 3.96801C68.864 3.71201 69.088 3.50401 69.28 3.34401C69.6 3.05601 69.92 3.04001 70.24 3.29601C70.528 3.52001 70.912 3.85601 71.392 4.30401C71.904 4.72001 72.304 5.07201 72.592 5.36001C72.944 5.74401 72.88 6.08001 72.4 6.36801C72.272 6.43201 72.112 6.51201 71.92 6.60801C71.76 6.67201 71.584 6.75201 71.392 6.84801C71.264 6.91201 71.168 7.00801 71.104 7.13601C71.04 7.26401 71.008 7.45601 71.008 7.71201C71.008 8.19201 71.024 8.84801 71.056 9.68001C71.12 10.48 71.168 11.216 71.2 11.888C71.232 12.56 71.248 12.96 71.248 13.088C71.248 13.28 71.008 13.488 70.528 13.712C70.048 13.904 69.568 14 69.088 14C68.512 14 68.224 13.76 68.224 13.28V12.752H58.624C58.304 16.432 57.536 19.584 56.32 22.208C55.104 24.832 53.776 26.976 52.336 28.64ZM59.536 28.64C59.024 28.64 58.768 28.416 58.768 27.968C58.768 27.776 58.784 27.264 58.816 26.432C58.88 25.568 58.928 24.544 58.96 23.36C58.992 22.176 59.008 21.008 59.008 19.856C59.008 19.024 58.992 18.352 58.96 17.84C58.928 17.296 58.864 16.816 58.768 16.4C58.704 16.208 58.736 16.048 58.864 15.92C58.992 15.792 59.168 15.776 59.392 15.872C59.68 16 60.08 16.224 60.592 16.544C61.136 16.832 61.616 17.088 62.032 17.312H67.072C67.296 17.312 67.472 17.248 67.6 17.12C67.76 16.96 67.952 16.752 68.176 16.496C68.432 16.24 68.656 16.016 68.848 15.824C69.136 15.536 69.456 15.536 69.808 15.824C70.096 16.048 70.48 16.384 70.96 16.832C71.44 17.248 71.824 17.6 72.112 17.888C72.528 18.24 72.464 18.56 71.92 18.848C71.792 18.944 71.648 19.04 71.488 19.136C71.328 19.2 71.152 19.28 70.96 19.376C70.704 19.504 70.576 19.792 70.576 20.24C70.576 20.784 70.592 21.52 70.6241 22.448C70.688 23.376 70.736 24.24 70.768 25.04C70.8 25.808 70.816 26.256 70.816 26.384C70.816 26.672 70.56 26.928 70.048 27.152C69.568 27.376 69.104 27.488 68.656 27.488C68.048 27.488 67.744 27.232 67.744 26.72V25.568H61.696V27.488C61.696 27.808 61.472 28.08 61.024 28.304C60.576 28.528 60.08 28.64 59.536 28.64ZM58.72 11.312H68.224V6.27201H58.768V9.48801C58.768 9.80801 58.752 10.112 58.72 10.4C58.72 10.688 58.72 10.992 58.72 11.312ZM61.696 24.128H67.744V18.8H61.696V24.128Z" fill="black"/>
<path d="M4.624 45.44H4.528C4.336 45.44 4.176 45.296 4.048 45.008V44.912C4.048 44.656 4.176 44.496 4.432 44.432C7.28 43.792 9.568 42.8 11.296 41.456C13.056 40.08 14.336 38.176 15.136 35.744C15.968 33.312 16.432 30.192 16.528 26.384V26.288C16.528 26.064 16.432 25.888 16.24 25.76C16.08 25.6 15.888 25.52 15.664 25.52H11.056C10.192 25.52 9.376 25.536 8.608 25.568C7.84 25.6 7.216 25.632 6.736 25.664H6.64C6.096 25.664 5.76 25.408 5.632 24.896L5.536 24.512L5.488 24.368C5.488 23.952 5.712 23.744 6.16 23.744C6.704 23.808 7.424 23.888 8.32 23.984C9.248 24.048 10.16 24.08 11.056 24.08H36.976C37.552 24.08 37.952 23.904 38.176 23.552C38.336 23.36 38.544 23.088 38.8 22.736C39.088 22.384 39.36 22.032 39.616 21.68C39.904 21.328 40.096 21.072 40.192 20.912C40.384 20.688 40.608 20.576 40.864 20.576C41.12 20.576 41.472 20.72 41.92 21.008C42.4 21.296 42.912 21.648 43.456 22.064C44 22.48 44.496 22.896 44.944 23.312C45.392 23.728 45.728 24.064 45.952 24.32C46.112 24.48 46.192 24.672 46.192 24.896C46.192 25.312 46.016 25.52 45.664 25.52H33.184C32.96 25.52 32.752 25.6 32.56 25.76C32.368 25.92 32.272 26.128 32.272 26.384V37.472C32.272 37.92 32.432 38.24 32.752 38.432C33.072 38.592 33.632 38.672 34.432 38.672C35.008 38.672 35.68 38.656 36.448 38.624C37.248 38.56 38 38.496 38.704 38.432C39.44 38.336 40 38.24 40.384 38.144C40.992 37.984 41.424 37.76 41.68 37.472C41.968 37.152 42.208 36.688 42.4 36.08C42.56 35.632 42.768 34.976 43.024 34.112C43.28 33.216 43.536 32.336 43.792 31.472C44.08 30.608 44.272 29.984 44.368 29.6C44.432 29.312 44.624 29.2 44.944 29.264C45.232 29.264 45.376 29.44 45.376 29.792C45.344 30.112 45.296 30.592 45.232 31.232C45.2 31.872 45.152 32.544 45.088 33.248C45.056 33.952 45.024 34.608 44.992 35.216C44.96 35.792 44.928 36.208 44.896 36.464V36.608C44.896 36.896 44.96 37.12 45.088 37.28C45.248 37.408 45.472 37.536 45.76 37.664C46.304 37.856 46.768 38.208 47.152 38.72C47.568 39.2 47.776 39.728 47.776 40.304C47.776 41.232 47.552 41.936 47.104 42.416C46.688 42.896 45.968 43.28 44.944 43.568C44.272 43.76 43.312 43.92 42.064 44.048C40.848 44.208 39.504 44.32 38.032 44.384C36.592 44.48 35.168 44.528 33.76 44.528C32.192 44.528 30.832 44.48 29.68 44.384C28.496 44.32 27.648 44.032 27.136 43.52C26.656 43.04 26.416 42.4 26.416 41.6V26.384C26.416 26.128 26.336 25.92 26.176 25.76C26.016 25.6 25.808 25.52 25.552 25.52H23.536C22.992 25.52 22.688 25.808 22.624 26.384C22.4 29.968 21.824 32.928 20.896 35.264C20 37.6 18.784 39.456 17.248 40.832C15.744 42.208 13.936 43.232 11.824 43.904C9.712 44.608 7.312 45.12 4.624 45.44ZM7.408 18.704C6.288 18.704 5.44 18.384 4.864 17.744C4.288 17.104 4 16.384 4 15.584C4 15.008 4.16 14.432 4.48 13.856C4.8 13.28 5.28 12.8 5.92 12.416C7.104 11.68 8.032 10.832 8.704 9.872C9.376 8.912 9.76 7.6 9.856 5.936C9.92 5.648 10.08 5.472 10.336 5.408H10.48C10.768 5.408 10.928 5.504 10.96 5.696C11.344 6.432 11.632 7.216 11.824 8.048C11.984 8.624 12.352 8.912 12.928 8.912H21.328C21.584 8.912 21.792 8.816 21.952 8.624C22.112 8.432 22.192 8.224 22.192 8V5.456C22.192 4.144 22.08 3.296 21.856 2.912C21.728 2.688 21.712 2.464 21.808 2.24C21.904 2.08 22.08 2 22.336 2C22.688 2 23.184 2.032 23.824 2.096C24.464 2.16 25.152 2.24 25.888 2.336C26.656 2.4 27.36 2.48 28 2.576C28.64 2.672 29.12 2.752 29.44 2.816C29.824 2.944 30.016 3.2 30.016 3.584C30.016 4.096 29.76 4.384 29.248 4.448C28.608 4.544 28.288 4.896 28.288 5.504V8C28.288 8.224 28.368 8.432 28.528 8.624C28.72 8.816 28.928 8.912 29.152 8.912H37.408C37.664 8.912 37.84 8.896 37.936 8.864C38.032 8.8 38.144 8.672 38.272 8.48C38.4 8.224 38.56 7.92 38.752 7.568C38.944 7.216 39.104 6.928 39.232 6.704C39.36 6.416 39.552 6.272 39.808 6.272C40 6.272 40.208 6.32 40.432 6.416C40.944 6.608 41.616 6.96 42.448 7.472C43.312 7.952 44.16 8.48 44.992 9.056C45.824 9.6 46.464 10.064 46.912 10.448C47.2 10.672 47.344 10.992 47.344 11.408C47.344 11.6 47.296 11.776 47.2 11.936C46.944 12.352 46.496 12.56 45.856 12.56C45.6 12.56 45.328 12.56 45.04 12.56C44.784 12.56 44.512 12.592 44.224 12.656C43.136 12.784 41.968 13.088 40.72 13.568C39.472 14.048 38.304 14.688 37.216 15.488C36.992 15.648 36.768 15.648 36.544 15.488C36.32 15.296 36.256 15.072 36.352 14.816C36.48 14.464 36.656 13.92 36.88 13.184C37.136 12.416 37.376 11.744 37.6 11.168L37.648 10.976C37.648 10.56 37.424 10.352 36.976 10.352H13.12C12.576 10.352 12.304 10.64 12.304 11.216C12.336 12.592 12.144 13.856 11.728 15.008C11.344 16.128 10.768 17.024 10 17.696C9.264 18.368 8.4 18.704 7.408 18.704ZM13.504 18.368H13.408C12.896 18.368 12.56 18.112 12.4 17.6L12.256 17.024C12.256 16.864 12.32 16.736 12.448 16.64C12.608 16.512 12.768 16.464 12.928 16.496C13.472 16.528 14.208 16.592 15.136 16.688C16.064 16.752 16.976 16.784 17.872 16.784H29.536C30.048 16.784 30.4 16.624 30.592 16.304C30.784 16.048 31.056 15.664 31.408 15.152C31.76 14.608 32.016 14.224 32.176 14C32.368 13.776 32.56 13.664 32.752 13.664C32.912 13.664 33.056 13.712 33.184 13.808C33.568 14 34.016 14.32 34.528 14.768C35.04 15.184 35.536 15.616 36.016 16.064C36.496 16.48 36.848 16.832 37.072 17.12C37.2 17.28 37.264 17.456 37.264 17.648C37.264 18.032 37.104 18.224 36.784 18.224H17.872C16.976 18.224 16.144 18.24 15.376 18.272C14.608 18.304 13.984 18.336 13.504 18.368Z" fill="#D20B1D"/>
</svg>
